<svg xmlns="http://www.w3.org/2000/svg" width="256" height="256" viewBox="0 0 256 256" fill="none">
  <g clip-path="url(#clip0_84_74)">
    <path d="M196 0H60C26.8629 0 0 26.8629 0 60V196C0 229.137 26.8629 256 60 256H196C229.137 256 256 229.137 256 196V60C256 26.8629 229.137 0 196 0Z" fill="#242938"/>
    <path d="M84.745 111.961C84.745 114.395 85.008 116.368 85.468 117.816C86.0519 119.445 86.7558 121.028 87.574 122.553C87.903 123.079 88.034 123.605 88.034 124.066C88.034 124.724 87.639 125.382 86.784 126.039L82.639 128.803C82.047 129.197 81.455 129.395 80.929 129.395C80.271 129.395 79.613 129.066 78.955 128.474C78.0688 127.521 77.2759 126.486 76.587 125.382C75.8516 124.118 75.171 122.823 74.547 121.5C69.4156 127.553 62.9683 130.58 55.205 130.579C49.679 130.579 45.271 129 42.047 125.842C38.824 122.684 37.179 118.474 37.179 113.211C37.179 107.618 39.153 103.079 43.166 99.658C47.179 96.237 52.508 94.526 59.284 94.526C61.521 94.526 63.824 94.724 66.258 95.053C68.692 95.382 71.192 95.908 73.824 96.5V91.697C73.824 86.697 72.771 83.21 70.732 81.171C68.626 79.131 65.074 78.145 60.008 78.145C57.705 78.145 55.337 78.408 52.903 79C50.469 79.592 48.1 80.316 45.797 81.237C45.0489 81.5713 44.2799 81.8569 43.495 82.092C43.035 82.224 42.705 82.29 42.442 82.29C41.522 82.29 41.06 81.632 41.06 80.25V77.026C41.06 75.974 41.192 75.184 41.521 74.724C41.85 74.264 42.442 73.803 43.363 73.342C45.6656 72.158 48.429 71.1713 51.653 70.382C54.876 69.526 58.297 69.132 61.916 69.132C69.745 69.132 75.468 70.908 79.153 74.46C82.771 78.013 84.613 83.408 84.613 90.645V111.961H84.745ZM58.035 121.961C60.205 121.961 62.442 121.566 64.811 120.776C67.179 119.987 69.284 118.539 71.061 116.566C72.113 115.316 72.903 113.934 73.297 112.355C73.691 110.776 73.955 108.868 73.955 106.632V103.868C71.9601 103.383 69.9396 103.009 67.903 102.75C65.8514 102.491 63.7858 102.359 61.718 102.355C57.31 102.355 54.087 103.211 51.916 104.987C49.745 106.763 48.692 109.263 48.692 112.553C48.692 115.645 49.482 117.947 51.126 119.526C52.706 121.171 55.009 121.961 58.035 121.961ZM110.862 129.066C109.678 129.066 108.888 128.868 108.362 128.408C107.836 128.013 107.375 127.092 106.981 125.842L91.521 74.987C91.125 73.671 90.928 72.816 90.928 72.355C90.928 71.303 91.454 70.71 92.507 70.71H98.954C100.204 70.71 101.06 70.908 101.52 71.368C102.046 71.763 102.441 72.684 102.836 73.934L113.888 117.487L124.152 73.934C124.481 72.618 124.875 71.764 125.402 71.368C125.928 70.974 126.849 70.711 128.033 70.711H133.296C134.546 70.711 135.402 70.908 135.928 71.368C136.454 71.763 136.915 72.684 137.178 73.934L147.573 118.013L158.954 73.934C159.349 72.618 159.81 71.764 160.27 71.368C160.796 70.974 161.652 70.711 162.836 70.711H168.954C170.007 70.711 170.599 71.237 170.599 72.355C170.599 72.685 170.533 73.013 170.467 73.408C170.402 73.803 170.27 74.328 170.007 75.053L154.152 125.908C153.757 127.224 153.296 128.079 152.77 128.474C152.244 128.868 151.388 129.132 150.27 129.132H144.612C143.362 129.132 142.507 128.934 141.981 128.474C141.454 128.013 140.994 127.158 140.731 125.842L130.533 83.408L120.402 125.776C120.073 127.092 119.678 127.947 119.152 128.408C118.625 128.868 117.704 129.066 116.52 129.066H110.862ZM195.402 130.842C191.981 130.842 188.56 130.447 185.27 129.658C181.981 128.868 179.415 128.013 177.704 127.026C176.652 126.434 175.928 125.776 175.665 125.184C175.409 124.603 175.275 123.977 175.27 123.342V119.987C175.27 118.605 175.796 117.947 176.783 117.947C177.178 117.947 177.573 118.013 177.967 118.145C178.362 118.276 178.954 118.539 179.612 118.803C181.936 119.825 184.362 120.596 186.849 121.105C189.426 121.628 192.048 121.893 194.678 121.895C198.823 121.895 202.046 121.171 204.283 119.724C206.52 118.276 207.704 116.171 207.704 113.474C207.704 111.632 207.112 110.118 205.928 108.868C204.744 107.618 202.507 106.5 199.283 105.447L189.744 102.487C184.941 100.974 181.388 98.737 179.217 95.777C177.046 92.882 175.928 89.657 175.928 86.237C175.928 83.4743 176.52 81.04 177.704 78.934C178.888 76.829 180.467 74.987 182.441 73.54C184.415 72.026 186.652 70.908 189.283 70.118C191.915 69.328 194.678 69 197.573 69C199.02 69 200.533 69.066 201.981 69.263C203.494 69.46 204.875 69.723 206.257 69.987C207.573 70.316 208.823 70.645 210.007 71.04C211.191 71.434 212.112 71.8287 212.77 72.224C213.691 72.75 214.349 73.276 214.744 73.868C215.139 74.3947 215.336 75.1187 215.336 76.04V79.132C215.336 80.513 214.81 81.237 213.823 81.237C213.296 81.237 212.441 80.974 211.323 80.447C207.573 78.737 203.362 77.882 198.691 77.882C194.941 77.882 191.981 78.474 189.941 79.724C187.901 80.974 186.849 82.882 186.849 85.579C186.849 87.421 187.507 89 188.823 90.25C190.139 91.5 192.573 92.75 196.06 93.868L205.402 96.828C210.138 98.342 213.56 100.447 215.599 103.145C217.638 105.843 218.625 108.934 218.625 112.355C218.625 115.184 218.033 117.75 216.915 119.987C215.731 122.224 214.152 124.197 212.112 125.776C210.073 127.421 207.638 128.605 204.81 129.461C201.849 130.382 198.757 130.842 195.402 130.842Z" fill="white"/>
    <path fill-rule="evenodd" clip-rule="evenodd" d="M207.837 162.816C186.192 178.803 154.745 187.29 127.705 187.29C89.811 187.29 55.665 173.276 29.876 149.987C27.836 148.145 29.679 145.645 32.113 147.092C60.008 163.276 94.416 173.079 130.008 173.079C154.021 173.079 180.403 168.079 204.679 157.816C208.297 156.171 211.389 160.184 207.837 162.816Z" fill="#FF9900"/>
    <path fill-rule="evenodd" clip-rule="evenodd" d="M216.85 152.553C214.087 149 198.561 150.842 191.521 151.697C189.416 151.961 189.087 150.118 190.995 148.737C203.363 140.053 223.692 142.553 226.061 145.447C228.429 148.408 225.403 168.737 213.824 178.474C212.047 179.987 210.337 179.197 211.126 177.224C213.758 170.711 219.613 156.039 216.85 152.553Z" fill="#FF9900"/>
  </g>
  <defs>
    <clipPath id="clip0_84_74">
      <rect width="256" height="256" fill="white"/>
    </clipPath>
  </defs>
</svg>