<svg xmlns="http://www.w3.org/2000/svg" width="24" height="22" viewBox="0 0 24 22" fill="none">
  <path d="M0 9.43497C0 9.17897 0.051 8.92297 0.153 8.67697C0.386 8.11697 1.007 7.63097 2.248 6.65897L8.454 1.80297C9.695 0.830969 10.316 0.344969 11.031 0.162969C11.661 0.00296875 12.339 0.00296875 12.969 0.162969C13.684 0.345969 14.305 0.830969 15.546 1.80297L21.752 6.65897C22.993 7.63097 23.614 8.11697 23.847 8.67697C23.949 8.92297 24 9.17897 24 9.43497V12.565C24 12.821 23.949 13.077 23.847 13.323C23.614 13.883 22.993 14.369 21.752 15.34L15.546 20.197C14.305 21.169 13.684 21.654 12.969 21.837C12.339 21.997 11.661 21.997 11.031 21.837C10.316 21.654 9.695 21.169 8.454 20.197L2.248 15.34C1.007 14.37 0.386 13.883 0.153 13.323C0.0531745 13.0827 0.00120328 12.8252 0 12.565L0 9.43497ZM9.34 6.19697L10.227 6.89097C10.847 7.37597 11.157 7.61897 11.516 7.71097C11.831 7.79097 12.169 7.79097 12.484 7.71097C12.842 7.61897 13.152 7.37597 13.774 6.89097L14.66 6.19697C15.28 5.71097 15.59 5.46797 15.707 5.18797C15.7573 5.06795 15.7833 4.93911 15.7833 4.80897C15.7833 4.67883 15.7573 4.54999 15.707 4.42997C15.591 4.14997 15.28 3.90697 14.66 3.42197L13.773 2.72797C13.153 2.24197 12.843 1.99897 12.484 1.90797C12.1662 1.82871 11.8338 1.82871 11.516 1.90797C11.158 1.99897 10.848 2.24197 10.226 2.72797L9.34 3.42197C8.72 3.90697 8.41 4.14997 8.293 4.42997C8.24267 4.54999 8.21675 4.67883 8.21675 4.80897C8.21675 4.93911 8.24267 5.06795 8.293 5.18797C8.409 5.46797 8.72 5.71097 9.34 6.19697ZM15.25 10.822L16.137 11.516C16.757 12.002 17.068 12.245 17.427 12.336C17.741 12.416 18.08 12.416 18.395 12.336C18.753 12.245 19.063 12.002 19.683 11.516L20.57 10.822C21.19 10.337 21.501 10.094 21.617 9.81397C21.6673 9.69395 21.6933 9.56511 21.6933 9.43497C21.6933 9.30483 21.6673 9.17599 21.617 9.05597C21.501 8.77597 21.191 8.53297 20.57 8.04697L19.683 7.35297C19.063 6.86797 18.753 6.62497 18.395 6.53297C18.0769 6.45354 17.7441 6.45354 17.426 6.53297C17.068 6.62497 16.758 6.86797 16.137 7.35297L15.251 8.04697C14.63 8.53297 14.32 8.77597 14.204 9.05597C14.1537 9.17599 14.1277 9.30483 14.1277 9.43497C14.1277 9.56511 14.1537 9.69395 14.204 9.81397C14.32 10.094 14.63 10.337 15.251 10.822H15.25ZM3.43 10.822L10.227 16.142C10.847 16.628 11.157 16.87 11.516 16.962C11.831 17.042 12.169 17.042 12.484 16.962C12.842 16.87 13.152 16.628 13.774 16.142L14.66 15.448C15.28 14.962 15.59 14.719 15.707 14.439C15.7579 14.3191 15.7841 14.1902 15.7841 14.06C15.7841 13.9297 15.7579 13.8008 15.707 13.681C15.591 13.401 15.28 13.158 14.66 12.673L7.863 7.35297C7.243 6.86797 6.932 6.62497 6.573 6.53297C6.2552 6.45371 5.9228 6.45371 5.605 6.53297C5.247 6.62497 4.937 6.86797 4.317 7.35297L3.43 8.04697C2.81 8.53297 2.499 8.77597 2.383 9.05597C2.33267 9.17599 2.30675 9.30483 2.30675 9.43497C2.30675 9.56511 2.33267 9.69395 2.383 9.81397C2.499 10.094 2.809 10.337 3.43 10.822Z" fill="#D2CFCF"/>
</svg>