<svg xmlns="http://www.w3.org/2000/svg" width="11" height="11" viewBox="0 0 11 11" fill="none">
  <path d="M1.64004 0.27L5.50004 4.13L9.34004 0.29C9.42486 0.199717 9.52704 0.127495 9.64045 0.0776622C9.75387 0.0278298 9.87617 0.00141434 10 0C10.2653 0 10.5196 0.105357 10.7071 0.292893C10.8947 0.48043 11 0.734784 11 1C11.0024 1.1226 10.9796 1.24439 10.9332 1.35788C10.8868 1.47138 10.8176 1.57419 10.73 1.66L6.84004 5.5L10.73 9.39C10.8949 9.55124 10.9915 9.76959 11 10C11 10.2652 10.8947 10.5196 10.7071 10.7071C10.5196 10.8946 10.2653 11 10 11C9.8726 11.0053 9.74544 10.984 9.62666 10.9375C9.50787 10.8911 9.40005 10.8204 9.31004 10.73L5.50004 6.87L1.65004 10.72C1.56555 10.8073 1.46461 10.8769 1.35304 10.925C1.24148 10.9731 1.12151 10.9986 1.00004 11C0.734824 11 0.48047 10.8946 0.292934 10.7071C0.105397 10.5196 4.06363e-05 10.2652 4.06363e-05 10C-0.00229086 9.8774 0.0204561 9.75561 0.0668856 9.64212C0.113315 9.52862 0.182448 9.42581 0.270041 9.34L4.16004 5.5L0.270041 1.61C0.105226 1.44876 0.00858025 1.23041 4.06363e-05 1C4.06363e-05 0.734784 0.105397 0.48043 0.292934 0.292893C0.48047 0.105357 0.734824 0 1.00004 0C1.24004 0.003 1.47004 0.1 1.64004 0.27Z" fill="#db6033"/>
</svg>