<svg xmlns="http://www.w3.org/2000/svg" width="256" height="256" viewBox="0 0 256 256" fill="none">
  <g clip-path="url(#clip0_56_113)">
    <path d="M196 0H60C26.8629 0 0 26.8629 0 60V196C0 229.137 26.8629 256 60 256H196C229.137 256 256 229.137 256 196V60C256 26.8629 229.137 0 196 0Z" fill="#242938"/>
    <path d="M228 182.937C225.089 184.04 221.875 184.038 218.965 182.931C216.055 181.825 213.652 179.691 212.209 176.932C203.146 163.365 193.138 150.41 183.519 137.177L179.348 131.617C167.894 146.963 156.44 161.697 145.987 176.988C144.625 179.624 142.352 181.676 139.59 182.76C136.828 183.844 133.766 183.888 130.975 182.882L173.955 125.223L133.977 73.123C136.855 72.084 140.003 72.0698 142.89 73.0827C145.777 74.0956 148.226 76.0737 149.824 78.683C159.109 92.251 169.396 105.206 179.626 118.94C189.913 105.317 200.088 92.306 209.596 78.85C210.965 76.2562 213.239 74.2563 215.987 73.2311C218.735 72.2058 221.764 72.2268 224.497 73.29L208.984 93.863C202.034 103.037 195.195 112.267 187.967 121.219C187.384 121.74 186.918 122.379 186.599 123.093C186.28 123.807 186.116 124.58 186.116 125.361C186.116 126.143 186.28 126.916 186.599 127.63C186.918 128.344 187.384 128.982 187.967 129.504C201.256 147.13 214.433 164.811 228 182.937ZM28 124.5C29.168 118.94 29.89 112.879 31.503 107.208C41.122 73.013 80.321 58.778 107.288 79.963C123.079 92.363 127.027 109.933 126.249 129.727H37.286C35.84 165.09 61.361 186.441 93.999 175.543C99.2936 173.649 104.033 170.467 107.79 166.283C111.547 162.099 114.202 157.045 115.517 151.578C117.241 146.018 120.021 145.073 125.303 146.685C124.433 153.454 122.04 159.938 118.303 165.648C114.567 171.359 109.584 176.149 103.73 179.657C94.0578 184.947 82.9603 187.043 72.0248 185.645C61.0894 184.247 50.8762 179.426 42.846 171.873C34.9015 162.94 30.0978 151.653 29.168 139.735C29.168 137.845 28.445 135.954 28.056 134.175C28.0192 130.95 28.0005 127.725 28 124.5ZM37.397 122.109H117.853C117.352 96.477 101.172 78.295 79.599 78.129C55.579 77.795 38.398 95.587 37.341 121.998L37.397 122.109Z" fill="white"/>
  </g>
  <defs>
    <clipPath id="clip0_56_113">
      <rect width="256" height="256" fill="white"/>
    </clipPath>
  </defs>
</svg>