<svg xmlns="http://www.w3.org/2000/svg" width="20" height="20" viewBox="0 0 20 20" fill="none">
  <path d="M11.028 0C12.153 0.003 12.724 0.009 13.217 0.023L13.411 0.03C13.635 0.038 13.856 0.0479999 14.123 0.0599999C15.187 0.11 15.913 0.278 16.55 0.525C17.21 0.779 17.766 1.123 18.322 1.678C18.8307 2.17773 19.2241 2.78247 19.475 3.45C19.722 4.087 19.89 4.813 19.94 5.878C19.952 6.144 19.962 6.365 19.97 6.59L19.976 6.784C19.991 7.276 19.997 7.847 19.999 8.972L20 9.718V11.028C20.0024 11.7574 19.9947 12.4868 19.977 13.216L19.971 13.41C19.963 13.635 19.953 13.856 19.941 14.122C19.891 15.187 19.721 15.912 19.475 16.55C19.2241 17.2175 18.8307 17.8223 18.322 18.322C17.8222 18.8307 17.2175 19.2242 16.55 19.475C15.913 19.722 15.187 19.89 14.123 19.94L13.411 19.97L13.217 19.976C12.724 19.99 12.153 19.997 11.028 19.999L10.282 20H8.97296C8.24322 20.0026 7.51348 19.9949 6.78396 19.977L6.58996 19.971C6.35257 19.962 6.11523 19.9517 5.87796 19.94C4.81396 19.89 4.08796 19.722 3.44996 19.475C2.78279 19.2241 2.1784 18.8306 1.67896 18.322C1.1699 17.8224 0.776067 17.2176 0.524959 16.55C0.277959 15.913 0.109958 15.187 0.0599584 14.122L0.0299584 13.41L0.0249585 13.216C0.00652458 12.4868 -0.00180965 11.7574 -4.15546e-05 11.028V8.972C-0.00280945 8.2426 0.00452466 7.5132 0.0219585 6.784L0.0289585 6.59C0.0369585 6.365 0.0469585 6.144 0.0589585 5.878C0.108958 4.813 0.276958 4.088 0.523958 3.45C0.775653 2.7822 1.17018 2.17744 1.67996 1.678C2.17911 1.16955 2.78315 0.776074 3.44996 0.525C4.08796 0.278 4.81296 0.11 5.87796 0.0599999C6.14396 0.0479999 6.36596 0.038 6.58996 0.03L6.78396 0.0239999C7.51315 0.00623271 8.24255 -0.0014347 8.97196 0.000999928L11.028 0ZM9.99996 5C8.67388 5 7.40211 5.52678 6.46442 6.46447C5.52674 7.40215 4.99996 8.67392 4.99996 10C4.99996 11.3261 5.52674 12.5979 6.46442 13.5355C7.40211 14.4732 8.67388 15 9.99996 15C11.326 15 12.5978 14.4732 13.5355 13.5355C14.4732 12.5979 15 11.3261 15 10C15 8.67392 14.4732 7.40215 13.5355 6.46447C12.5978 5.52678 11.326 5 9.99996 5ZM9.99996 7C10.3939 6.99993 10.784 7.07747 11.148 7.22817C11.512 7.37887 11.8428 7.5998 12.1214 7.87833C12.4 8.15686 12.6211 8.48754 12.7719 8.85149C12.9227 9.21544 13.0004 9.60553 13.0005 9.9995C13.0005 10.3935 12.923 10.7836 12.7723 11.1476C12.6216 11.5116 12.4007 11.8423 12.1221 12.121C11.8436 12.3996 11.5129 12.6206 11.149 12.7714C10.785 12.9223 10.3949 12.9999 10.001 13C9.20531 13 8.44225 12.6839 7.87964 12.1213C7.31703 11.5587 7.00096 10.7956 7.00096 10C7.00096 9.20435 7.31703 8.44129 7.87964 7.87868C8.44225 7.31607 9.20531 7 10.001 7M15.251 3.5C14.9194 3.5 14.6015 3.6317 14.3671 3.86612C14.1327 4.10054 14.001 4.41848 14.001 4.75C14.001 5.08152 14.1327 5.39946 14.3671 5.63388C14.6015 5.8683 14.9194 6 15.251 6C15.5825 6 15.9004 5.8683 16.1348 5.63388C16.3693 5.39946 16.501 5.08152 16.501 4.75C16.501 4.41848 16.3693 4.10054 16.1348 3.86612C15.9004 3.6317 15.5825 3.5 15.251 3.5Z" fill="#D2CFCF"/>
</svg>