<svg xmlns="http://www.w3.org/2000/svg" width="20" height="16" viewBox="0 0 20 16" fill="none">
  <path fill-rule="evenodd" clip-rule="evenodd" d="M3 16C2.20435 16 1.44129 15.6839 0.87868 15.1213C0.316071 14.5587 0 13.7956 0 13V3C0 2.20435 0.316071 1.44129 0.87868 0.87868C1.44129 0.316071 2.20435 0 3 0H17C17.7956 0 18.5587 0.316071 19.1213 0.87868C19.6839 1.44129 20 2.20435 20 3V13C20 13.7956 19.6839 14.5587 19.1213 15.1213C18.5587 15.6839 17.7956 16 17 16H3ZM5.625 4.22C5.52313 4.13302 5.40483 4.06739 5.27711 4.027C5.1494 3.98662 5.01487 3.97231 4.88151 3.98491C4.74816 3.99752 4.61869 4.03679 4.50081 4.1004C4.38292 4.164 4.27901 4.25064 4.19525 4.35517C4.11149 4.4597 4.04959 4.58 4.01321 4.70891C3.97684 4.83783 3.96673 4.97274 3.9835 5.10564C4.00026 5.23853 4.04356 5.36671 4.11081 5.48255C4.17806 5.59839 4.2679 5.69954 4.375 5.78L8.125 8.781C8.65709 9.20701 9.31838 9.43913 10 9.43913C10.6816 9.43913 11.3429 9.20701 11.875 8.781L15.625 5.781C15.7276 5.69892 15.813 5.59745 15.8763 5.48237C15.9396 5.3673 15.9797 5.24087 15.9942 5.11031C16.0087 4.97975 15.9973 4.84762 15.9607 4.72145C15.9241 4.59529 15.8631 4.47756 15.781 4.375C15.6989 4.27244 15.5974 4.18705 15.4824 4.1237C15.3673 4.06035 15.2409 4.02029 15.1103 4.00581C14.9798 3.99132 14.8476 4.00269 14.7215 4.03927C14.5953 4.07585 14.4776 4.13692 14.375 4.219L10.625 7.219C10.4476 7.361 10.2272 7.43838 10 7.43838C9.77279 7.43838 9.55236 7.361 9.375 7.219L5.625 4.22Z" fill="white"/>
</svg>