<svg xmlns="http://www.w3.org/2000/svg" width="256" height="256" viewBox="0 0 256 256" fill="none">
  <g clip-path="url(#clip0_56_174)">
    <mask id="mask0_56_174" style="mask-type:luminance" maskUnits="userSpaceOnUse" x="0" y="0" width="256" height="256">
      <path d="M128 256C198.692 256 256 198.692 256 128C256 57.3075 198.692 0 128 0C57.3075 0 0 57.3075 0 128C0 198.692 57.3075 256 128 256Z" fill="white"/>
    </mask>
    <g mask="url(#mask0_56_174)">
      <path d="M128 256C198.692 256 256 198.692 256 128C256 57.3075 198.692 0 128 0C57.3075 0 0 57.3075 0 128C0 198.692 57.3075 256 128 256Z" fill="black"/>
      <path d="M212.634 224.028L98.335 76.8H76.8V179.157H94.028V98.68L199.11 234.446C203.845 231.278 208.363 227.798 212.634 224.028Z" fill="url(#paint0_linear_56_174)"/>
      <path d="M163.556 76.8H180.623V179.2H163.556V76.8Z" fill="url(#paint1_linear_56_174)"/>
    </g>
  </g>
  <defs>
    <linearGradient id="paint0_linear_56_174" x1="7633.65" y1="8965.67" x2="12169.7" y2="14587.9" gradientUnits="userSpaceOnUse">
      <stop stop-color="white"/>
      <stop offset="1" stop-color="white" stop-opacity="0"/>
    </linearGradient>
    <linearGradient id="paint1_linear_56_174" x1="1016.91" y1="76.8" x2="988.03" y2="7596.74" gradientUnits="userSpaceOnUse">
      <stop stop-color="white"/>
      <stop offset="1" stop-color="white" stop-opacity="0"/>
    </linearGradient>
    <clipPath id="clip0_56_174">
      <rect width="256" height="256" fill="white"/>
    </clipPath>
  </defs>
</svg>