<svg xmlns="http://www.w3.org/2000/svg" width="200" height="200" viewBox="0 0 256 256" fill="none">
  <g clip-path="url(#clip0_54_81)">
    <path d="M196 0H60C26.8629 0 0 26.8629 0 60V196C0 229.137 26.8629 256 60 256H196C229.137 256 256 229.137 256 196V60C256 26.8629 229.137 0 196 0Z" fill="#242938"/>
    <path d="M203.48 148.688C183.16 152.878 181.684 145.995 181.684 145.995C203.15 114.143 212.129 73.713 204.38 63.82C183.259 36.82 146.689 49.596 146.077 49.927L145.88 49.962C141.413 49.0656 136.872 48.5921 132.317 48.548C123.12 48.408 116.145 50.96 110.844 54.975C110.844 54.975 45.608 28.102 48.645 88.775C49.292 101.684 67.138 186.509 88.442 160.845C96.289 151.409 103.812 143.484 103.812 143.484C107.539 145.966 112.018 147.232 116.708 146.775L117.073 146.466C116.966 147.681 117.015 148.905 117.221 150.108C111.737 156.239 113.354 157.315 102.385 159.572C91.29 161.857 97.815 165.928 102.062 166.997C107.223 168.291 119.162 170.119 127.234 158.827L126.91 160.113C129.062 161.836 130.566 171.314 130.313 179.906C130.06 188.499 129.891 194.391 131.579 199.003C133.267 203.615 134.954 213.98 149.368 210.956C161.413 208.376 167.649 201.675 168.528 190.524C169.147 182.592 170.539 183.759 170.638 176.672L171.763 173.311C173.049 162.553 171.973 159.087 179.391 160.704L181.198 160.866C186.662 161.112 193.813 159.987 198.003 158.039C207.038 153.849 212.396 146.845 203.487 148.688H203.48Z" fill="#336791"/>
    <path d="M146.07 48.596C143.82 49.299 182.38 34.499 204.303 62.504C212.038 72.397 203.073 112.827 181.606 144.678M128.098 153.784C127.536 173.795 128.239 193.946 130.194 198.784C132.148 203.621 136.346 213.198 150.767 210.118C162.812 207.538 167.199 202.538 169.098 191.506L173.548 156.231L128.098 153.784ZM110.816 53.469C110.816 53.469 45.537 26.779 48.575 87.45C49.222 100.359 67.067 185.184 88.372 159.52C96.148 150.147 103.18 142.814 103.18 142.814L110.816 53.469Z" stroke="white" stroke-width="5.034" stroke-linecap="round" stroke-linejoin="round"/>
    <path d="M181.613 144.664C181.613 144.664 183.02 151.555 203.41 147.35C212.319 145.508 206.954 152.511 197.926 156.702C190.515 160.147 173.893 161.026 173.619 156.28C172.916 144.01 182.366 147.737 181.684 144.664C181.065 141.894 176.832 139.18 174.048 132.402C171.608 126.495 140.579 81.144 182.654 87.872C184.201 87.556 171.685 47.7949 132.31 47.2179C92.935 46.6409 94.18 95.6279 94.18 95.6279" stroke="white" stroke-width="5.034" stroke-linecap="round" stroke-linejoin="bevel"/>
    <path d="M117.08 148.869C111.596 155 113.213 156.076 102.245 158.333C91.149 160.618 97.675 164.689 101.921 165.758C107.082 167.052 119.021 168.88 127.093 157.58C129.554 154.135 127.079 148.651 123.704 147.259C122.073 146.584 119.893 145.74 117.095 148.876L117.08 148.869Z" stroke="white" stroke-width="5.034" stroke-linejoin="round"/>
    <path d="M116.722 148.763C116.159 145.156 117.903 140.874 119.766 135.854C122.565 128.331 129.02 120.807 123.859 96.922C120.013 79.132 94.187 93.216 94.187 95.628C94.187 98.04 95.354 107.863 93.765 119.288C91.677 134.209 103.257 146.823 116.588 145.536" stroke="white" stroke-width="5.034" stroke-linecap="round" stroke-linejoin="round"/>
    <path d="M110.577 95.27C110.457 96.092 112.088 98.293 114.205 98.588C116.321 98.884 118.128 97.168 118.248 96.338C118.367 95.508 116.736 94.608 114.62 94.313C112.504 94.018 110.682 94.454 110.577 95.27Z" fill="white" stroke="white" stroke-width="1.68"/>
    <path d="M175.011 93.59C175.123 94.412 173.499 96.612 171.383 96.908C169.266 97.203 167.445 95.488 167.34 94.658C167.234 93.828 168.852 92.928 170.968 92.633C173.084 92.338 174.905 92.774 175.011 93.59Z" fill="white" stroke="white" stroke-width="0.837"/>
    <path d="M182.577 87.887C182.928 94.356 181.184 98.75 180.959 105.634C180.636 115.632 185.727 127.079 178.055 138.54" stroke="white" stroke-width="5.034" stroke-linecap="round" stroke-linejoin="round"/>
  </g>
  <defs>
    <clipPath id="clip0_54_81">
      <rect width="256" height="256" fill="white"/>
    </clipPath>
  </defs>
</svg>