<svg xmlns="http://www.w3.org/2000/svg" width="128" height="128" viewBox="0 0 128 128" fill="none">
  <path d="M113.117 26.0661C92.168 -1.06194 53.191 -6.06994 26.062 14.8831C-1.06302 35.8361 -6.06602 74.8131 14.887 101.938C35.844 129.062 74.824 134.062 101.945 113.105C129.059 92.1521 134.063 53.1871 113.117 26.0661Z" fill="#F37036"/>
  <path d="M91.078 24.164C88.9415 24.3349 86.9157 25.185 85.297 26.59C83.4028 28.2351 82.1939 30.5304 81.9088 33.0231C81.6237 35.5157 82.2831 38.0247 83.757 40.055C85.2296 42.0857 87.4096 43.4909 89.8672 43.9935C92.3248 44.4961 94.8814 44.0596 97.033 42.77H97.035L97.191 42.926C97.8997 42.52 98.5591 42.0335 99.156 41.476C100.998 39.528 102.011 36.9407 101.982 34.26C101.953 31.5793 100.884 29.0146 99 27.107V27.105L90.156 35.894L90 35.739L98.844 26.946C97.8202 25.9591 96.5985 25.2009 95.2597 24.7217C93.9209 24.2424 92.4955 24.053 91.078 24.166V24.164ZM79.434 38.551C75.194 38.544 68.271 43.35 51.367 60.254L51.451 60.34C51.359 60.308 51.266 60.305 51.266 60.305L44.902 66.613C44.7386 66.7685 44.6304 66.9731 44.5939 67.1956C44.5575 67.4182 44.5947 67.6466 44.7 67.8461C44.8053 68.0456 44.9728 68.2052 45.1772 68.3007C45.3815 68.3961 45.6115 68.4223 45.832 68.375L56.746 66.047C56.7946 66.0021 56.8269 65.9423 56.838 65.877L57.08 66.127L53.36 69.817H53.18L31.094 92.077L38.18 98.901C38.3779 99.0802 38.6279 99.1914 38.8935 99.2182C39.1591 99.245 39.4263 99.1861 39.656 99.05C39.8876 98.9153 40.0731 98.7137 40.1882 98.4718C40.3033 98.2298 40.3426 97.9587 40.301 97.694L39.266 93.194C39.2009 93.1038 39.1659 92.9953 39.1659 92.884C39.1659 92.7728 39.2009 92.6643 39.266 92.574C48.9401 87.962 57.9364 82.046 66.004 74.991L61.469 70.454L61.555 70.44L58.865 67.751L59.037 67.577L59.219 67.763L59.125 67.854L66.262 75.147V75.144C79.942 62.19 89.652 51.777 87.127 44.769C87.012 43.931 86.6227 43.1546 86.02 42.561V42.565C85.8665 42.4516 85.7051 42.3494 85.537 42.259C85.454 42.171 85.381 42.081 85.293 41.995L85.227 42.061C85.0412 41.9487 84.8466 41.8517 84.645 41.771L84.934 41.479C83.138 39.879 81.654 38.555 79.434 38.549V38.551ZM30.94 92.21L25.769 97.382V97.386C25.5835 97.501 25.4392 97.6718 25.3571 97.874C25.275 98.0762 25.2592 98.2993 25.312 98.511C25.363 98.7227 25.4795 98.9129 25.6448 99.0546C25.8102 99.1962 26.016 99.2821 26.233 99.3L38.905 100.175L30.94 92.21Z" fill="white"/>
  <path d="M91.95 23.3099C89.0477 23.3067 86.2607 24.4453 84.191 26.4799C82.7187 27.9871 81.7106 29.8857 81.2869 31.9495C80.8631 34.0134 81.0416 36.1556 81.801 38.1209C77.06 36.0909 70.646 39.6309 50.695 59.5779C50.6811 59.6086 50.6687 59.64 50.658 59.6719C50.617 59.6899 50.5772 59.7106 50.539 59.7339L44.23 66.0979C43.9276 66.3948 43.729 66.7812 43.6636 67.1998C43.5982 67.6185 43.6695 68.047 43.867 68.4219C44.0431 68.7187 44.2927 68.9651 44.5917 69.1374C44.8906 69.3098 45.2289 69.4023 45.574 69.4059L45.887 69.2029L54.311 67.4059L50.281 71.4729C50.2582 71.5266 50.2401 71.5821 50.227 71.6389L30.477 91.438C30.3983 91.5042 30.3331 91.585 30.285 91.6759L25.199 96.7659C24.9458 97.0337 24.7728 97.3671 24.6996 97.7282C24.6265 98.0893 24.656 98.4638 24.785 98.8089C24.9181 99.1516 25.1431 99.451 25.4352 99.6742C25.7274 99.8973 26.0754 100.036 26.441 100.074L39.059 100.954C39.2746 100.879 39.4581 100.733 39.579 100.539C39.6869 100.388 39.7449 100.207 39.7449 100.021C39.7449 99.8359 39.6869 99.6549 39.579 99.5039L39.553 99.4789C39.826 99.337 40.0661 99.1394 40.258 98.8989C40.4605 98.6359 40.6019 98.3311 40.6721 98.0066C40.7423 97.6822 40.7396 97.3462 40.664 97.0229L39.68 92.8359C49.1205 88.3245 57.9659 82.6611 66.014 75.9749C66.0917 76.0203 66.1751 76.0549 66.262 76.0779C66.516 76.0589 66.754 75.9499 66.934 75.7699C80.484 62.9399 88.449 54.1479 88.449 47.1679C88.4791 46.1997 88.333 45.234 88.018 44.3179C89.2394 44.8234 90.5419 45.1045 91.863 45.1479L91.848 45.1519C93.6678 45.0971 95.4469 44.5994 97.031 43.7019L97.035 43.7029C97.2402 43.7639 97.4609 43.7442 97.652 43.6479C98.4165 43.1977 99.1134 42.6415 99.722 41.9959C100.753 40.9842 101.573 39.777 102.132 38.445C102.692 37.1129 102.98 35.6827 102.98 34.2379C102.98 32.7933 102.692 31.3631 102.133 30.031C101.573 28.699 100.754 27.4918 99.723 26.4799C99.686 26.4467 99.6465 26.4163 99.605 26.3889C97.5462 24.4128 94.8027 23.3099 91.949 23.3109L91.95 23.3099ZM91.863 25.0819C93.8839 25.094 95.8454 25.7661 97.449 26.9959L89.381 35.1129C89.3537 35.144 89.3283 35.1767 89.305 35.2109C89.1596 35.3581 89.0743 35.5542 89.066 35.7609C89.0659 35.8859 89.094 36.0092 89.1482 36.1217C89.2024 36.2343 89.2813 36.3331 89.379 36.4109H89.381L95.481 42.5109C93.8114 43.2396 91.9606 43.4468 90.1711 43.1055C88.3817 42.7641 86.7371 41.8901 85.453 40.5979C82.867 37.9979 82.117 34.0939 83.5 30.7069C84.883 27.3169 88.18 25.1019 91.863 25.0819ZM98.983 28.5139C100.302 30.11 101.021 32.1173 101.016 34.1879C101.012 36.6137 100.045 38.9388 98.328 40.6519C97.9836 40.9759 97.6167 41.2749 97.23 41.5469L92.307 36.6999L91.344 35.7369L91.609 35.4719L98.982 28.5119L98.983 28.5139ZM98.617 32.7069C98.436 32.65 98.2405 32.6611 98.067 32.7379C97.8953 32.8267 97.7659 32.9799 97.707 33.1639C97.678 33.2558 97.6676 33.3525 97.6761 33.4484C97.6847 33.5444 97.7122 33.6377 97.757 33.7229C97.9343 34.0966 98.0041 34.5123 97.9587 34.9234C97.9133 35.3345 97.7545 35.7249 97.5 36.0509C97.4348 36.1138 97.3837 36.1899 97.3501 36.274C97.3165 36.3581 97.3011 36.4484 97.305 36.5389C97.309 36.7229 97.375 36.8989 97.5 37.0309C97.6333 37.0819 97.7807 37.0819 97.914 37.0309C98.0342 37.0609 98.1604 37.0575 98.2788 37.021C98.3973 36.9846 98.5035 36.9164 98.586 36.8239C99.0118 36.3023 99.2814 35.6709 99.3637 35.0026C99.446 34.3342 99.3376 33.6563 99.051 33.0469V33.0509C98.9533 32.8871 98.7989 32.7647 98.617 32.7069ZM79.34 39.4299C80.5466 39.4711 81.7077 39.9011 82.65 40.6559C81.6354 40.8023 80.6951 41.2722 79.969 41.9959L57.162 64.7009L52.686 60.2249C64.514 48.4529 71.746 42.3039 76.242 40.2889C77.1684 39.7056 78.2455 39.4076 79.34 39.4299ZM83.305 42.3899C84.0707 42.3905 84.8051 42.6939 85.348 43.2339C85.6361 43.5053 85.8634 43.8346 86.0149 44.2002C86.1664 44.5658 86.2387 44.9594 86.227 45.3549C86.2139 45.7491 86.1196 46.1364 85.9501 46.4926C85.7807 46.8487 85.5396 47.1661 85.242 47.4249L60.992 68.5309L58.375 65.9139L81.262 43.2339C81.805 42.6943 82.5394 42.3903 83.305 42.3899ZM86.299 49.0879C84.609 55.7899 75.652 64.8709 66.312 73.6949L62.535 69.9219L86.299 49.0879ZM51.367 61.5469L51.641 61.8169L55.154 65.3299L45.524 67.3899L51.367 61.5469ZM57.16 67.3869L57.164 67.3909L58.332 68.5859L58.35 68.6699L58.428 68.6819L58.676 68.9359L59.496 69.7759L54.111 70.4359L57.16 67.3869ZM61.027 71.4629L64.605 75.0389C56.6932 81.6178 48.0113 87.2108 38.75 91.6949C38.4493 91.8381 38.2076 92.0811 38.0659 92.3825C37.9242 92.6839 37.8914 93.0251 37.973 93.3479L39.008 97.8479C39.0462 97.9008 39.0667 97.9643 39.0667 98.0294C39.0667 98.0946 39.0462 98.1581 39.008 98.2109C38.9511 98.262 38.8774 98.2902 38.801 98.2902C38.7246 98.2902 38.6509 98.262 38.594 98.2109L32.492 92.0589L51.3 72.9749L61.027 71.4629ZM31.094 93.4029L31.963 94.2169L36.455 98.7089L26.439 98.0609L31.094 93.4029Z" fill="#F37036"/>
</svg>