<svg xmlns="http://www.w3.org/2000/svg" width="200" height="200" viewBox="0 0 200 200" fill="none">
  <g clip-path="url(#clip0_56_145)">
    <path d="M185.158 98.2L98.2 185.158C96.7013 186.815 95.8967 188.985 95.9527 191.218C96.0086 193.452 96.9208 195.578 98.5006 197.158C100.08 198.738 102.207 199.65 104.44 199.706C106.674 199.762 108.843 198.957 110.5 197.458L197.458 110.5C198.957 108.843 199.762 106.674 199.706 104.44C199.65 102.207 198.738 100.08 197.158 98.5006C195.578 96.9208 193.452 96.0086 191.218 95.9527C188.985 95.8967 186.815 96.7013 185.158 98.2ZM167.767 2.54169L2.54169 167.767C1.04299 169.424 0.238418 171.593 0.294359 173.826C0.350301 176.06 1.26248 178.186 2.84224 179.766C4.422 181.346 6.54849 182.258 8.78191 182.314C11.0153 182.37 13.1848 181.565 14.8417 180.067L180.067 14.8417C181.565 13.1848 182.37 11.0153 182.314 8.78191C182.258 6.54849 181.346 4.422 179.766 2.84224C178.186 1.26248 176.06 0.350301 173.826 0.294359C171.593 0.238418 169.424 1.04299 167.767 2.54169Z" fill="black"/>
  </g>
  <defs>
    <clipPath id="clip0_56_145">
      <rect width="200" height="200" fill="white"/>
    </clipPath>
  </defs>
</svg>